<svg id="Layer_1" data-name="Layer 1" xmlns="http://www.w3.org/2000/svg" viewBox="0 0 800 800"><defs><style>.cls-1{fill:#808285;}</style></defs><title>aperture-radio</title><path class="cls-1" d="M396.07,338.91h0Z"/><path class="cls-1" d="M556.89,386.56V346.15h-8V328.77H498.71v17.38h-7.1V355c-28.47-9.52-60.18-15.26-95.51-16.1-34.8.85-66.1,6.45-94.22,15.74V-.51H286.6V360.18C107.1,430.9,65.54,657.23,65.54,735.12c0,14.66,114.71,33.83,114.71,33.83,0-167.4,114.94-252.14,216.11-252.14h.39c93.78,0,215.71,84.74,215.71,252.14,0,0,114.71-19.17,114.71-33.83C727.17,665.23,693.54,475.82,556.89,386.56Z"/><path class="cls-1" d="M513.38,637.2h25.8c8.54,0,32.05,34.54,32.05,74.93,0,29.12-3.49,28.74-10.87,28.74H495.9c-9.7,0-24.58-4.66-24.58-19.42V659c0-7.84,6.68-21.75,19.05-21.75Z"/><path class="cls-1" d="M279.27,637.2h-25.8c-8.54,0-32.05,34.54-32.05,74.93,0,29.12,3.49,28.74,10.87,28.74h64.45c9.71,0,24.58-4.66,24.58-19.42V659c0-7.84-6.68-21.75-19-21.75Z"/><path class="cls-1" d="M345,577.06c-.63-1.84-1.72-2.71-3.48-2.12s-2.09,1.91-1.49,3.66c.66,2,1.84,2.73,3.48,2.17S345.58,578.85,345,577.06Z"/><path class="cls-1" d="M344.72,584.61c-2,.68-2.41,2.28-1.65,4.51s2.15,3.26,4.17,2.58,2.35-2.32,1.59-4.57S346.62,584,344.72,584.61Z"/><path class="cls-1" d="M471.08,573.6c-1.27-4.57-11.6-25.35-76.14-25.61s-74.75,25.13-73.45,31a150.45,150.45,0,0,0,8.33,24.41c2.89,6.73,6.87,7.64,10.71,6.49,0,0,38.15-11.78,58.18-11.28s47.78,9.89,50.32,10.14,6.84,4.06,13.18-6.33S472.35,578.16,471.08,573.6Zm-122.84,22c-5.12,1.73-8.79-.44-10.21-4.65a6.33,6.33,0,0,1,1.35-6.7,5.7,5.7,0,0,1-4.21-4.09c-1.33-3.93.4-7.43,5.17-9,4.32-1.46,8-.13,9.36,3.88.93,2.75.2,4.71-.95,5.91,1.77.13,4.1,1.3,5.21,4.58C355.49,590,353.69,593.77,348.24,595.62Zm17.81-4.73c-4.81.93-8.17-1-9.3-5.5l5.18-1c.58,1.7,1.59,2.75,3.45,2.4,2.4-.47,2.67-2.41,2.14-5.12s-1.58-4.13-3.91-3.68a3,3,0,0,0-2.61,3l-4.69.23c-.05-3.08-.73-11.15-1.05-14.13l13.64-2.63.28,4.51-8.84,1.71c.15,1.44.31,3.74.38,4.79a6,6,0,0,1,3.74-1.94c4.6-.89,7.53,2.15,8.38,6.55C373.86,585.36,372.18,589.7,366.05,590.89Zm10.47-2-.64-6.12,5.33-.56.64,6.12Zm23.93-1.28-15.91.34v-.23c-.07-4.06,1.28-7.56,6.48-12.3,2.81-2.72,3.63-3.71,3.58-5.91,0-1.85-.78-3-2.54-2.93-2,0-2.64,1.53-2.73,4l-5.16.11c0-4.13,2-8.1,8-8.23,5.29-.12,7.87,2.88,8,7.07.07,3-.81,4.86-4.72,8.25-2.19,2-4,3.89-4.53,5.6l10.18-.22Zm27-7.29-9.3-1.52-1.7,10.44-5.4-.88,4.15-25.47,15.3,2.5-.75,4.57-9.89-1.62-1,6,9.31,1.52Zm23.65,18.42-5-1.7,2.95-8.71c1.37-4,3.12-9,4.16-11.77l-.17,0c-2.65,4.7-7.16,12.37-11.37,19L437.1,594c.91-7,2.25-16.68,3.06-21.92L440,572c-.78,2.92-2.42,8.11-3.84,12.33l-2.83,8.37-4.78-1.62,8.26-24.44,7.81,2.64c-.62,6.21-1.63,14-2.33,17.88l.05,0c1.69-3.27,6.18-10.18,9.51-15.45l7.55,2.55Z"/><path class="cls-1" d="M726.2,712.13l-83.19.18c-.53,30.59-8.78,53-30.55,56.64-79.36,13.32-337.56,13.69-432.21,0l-42.65-51.3.79-4.22-72,.16c-10,3.78-21.84,8.21-21.55,24.87S72.39,797.3,396.36,797.3s351.51-43.73,351.51-58.61S734.34,715.7,726.2,712.13Z"/></svg>